<?xml version="1.0" standalone="no"?>
<!DOCTYPE svg PUBLIC "-//W3C//DTD SVG 20010904//EN"
 "http://www.w3.org/TR/2001/REC-SVG-20010904/DTD/svg10.dtd">
<svg version="1.0" xmlns="http://www.w3.org/2000/svg"
 width="832.000000pt" height="832.000000pt" viewBox="0 0 832.000000 832.000000"
 preserveAspectRatio="xMidYMid meet">
<metadata>
Created by potrace 1.14, written by Peter Selinger 2001-2017
</metadata>
<g transform="translate(0.000000,832.000000) scale(0.100000,-0.100000)"
fill="#000000" stroke="none">
<path d="M157 8154 c-3 -4 -2 -14 3 -23 5 -10 5 -23 0 -31 -5 -8 -5 -21 1 -31
6 -11 5 -20 -1 -24 -6 -4 -7 -13 -2 -23 5 -9 6 -28 2 -42 -4 -14 -3 -37 1 -52
4 -15 3 -30 -2 -33 -5 -4 -5 -13 1 -24 5 -10 7 -21 4 -24 -8 -8 -7 -243 1
-256 3 -6 2 -11 -4 -11 -6 0 -6 -11 -1 -30 11 -37 10 -40 -1 -62 -6 -10 -5
-19 1 -23 5 -3 7 -12 4 -19 -8 -21 -10 -146 -2 -146 4 0 3 -13 -2 -30 -5 -16
-5 -30 -2 -30 9 0 7 -64 -2 -79 -4 -5 -2 -12 4 -16 6 -4 7 -12 1 -24 -5 -9 -6
-23 -2 -29 4 -7 5 -32 1 -55 -3 -24 -3 -55 1 -70 4 -15 3 -29 -2 -33 -5 -3 -5
-12 1 -23 5 -10 7 -21 4 -24 -8 -8 -7 -243 1 -256 3 -6 2 -11 -4 -11 -6 0 -6
-11 -1 -30 11 -37 10 -40 -1 -62 -6 -10 -5 -19 1 -23 5 -3 7 -12 4 -19 -8 -21
-10 -146 -2 -146 4 0 3 -13 -2 -30 -5 -16 -5 -30 -2 -30 9 0 7 -64 -2 -79 -4
-5 -2 -12 4 -16 6 -4 7 -12 1 -24 -5 -9 -6 -23 -2 -29 4 -7 5 -32 1 -55 -3
-24 -3 -55 1 -70 4 -15 3 -29 -2 -33 -5 -3 -5 -12 1 -23 5 -10 7 -21 4 -24 -8
-8 -7 -243 1 -256 3 -6 2 -11 -4 -11 -8 0 0 -53 10 -63 1 -1 -3 -12 -9 -24 -8
-13 -8 -24 -2 -28 5 -3 7 -12 4 -19 -8 -21 -10 -146 -2 -146 4 0 3 -13 -2 -30
-5 -16 -5 -30 -2 -30 9 0 7 -64 -2 -79 -4 -5 -2 -12 4 -16 6 -4 7 -12 1 -24
-5 -9 -6 -23 -2 -29 4 -7 5 -32 1 -55 -3 -24 -3 -55 1 -70 4 -15 3 -29 -2 -33
-5 -3 -5 -12 1 -23 5 -10 7 -21 4 -24 -8 -8 -7 -243 1 -256 3 -6 2 -11 -4 -11
-8 0 0 -53 10 -63 1 -1 -3 -12 -9 -24 -8 -13 -8 -24 -2 -28 5 -3 7 -12 4 -19
-8 -21 -10 -146 -2 -146 4 0 3 -13 -2 -30 -5 -16 -5 -30 -2 -30 9 0 7 -64 -2
-79 -4 -5 -2 -12 4 -16 6 -4 7 -12 1 -24 -5 -9 -6 -23 -2 -29 4 -7 5 -32 1
-55 -3 -24 -3 -55 1 -70 4 -15 3 -29 -2 -33 -5 -3 -5 -12 1 -23 5 -10 7 -21 4
-24 -8 -8 -7 -243 1 -256 3 -6 2 -11 -4 -11 -8 0 0 -53 10 -63 1 -1 -3 -12 -9
-24 -8 -13 -8 -24 -2 -28 5 -3 7 -12 4 -19 -8 -21 -10 -146 -2 -146 4 0 3 -13
-2 -30 -5 -16 -5 -30 -2 -30 9 0 7 -64 -2 -79 -4 -5 -2 -12 4 -16 6 -4 7 -12
1 -24 -5 -9 -6 -23 -2 -29 4 -7 5 -32 1 -55 -3 -24 -3 -55 1 -70 4 -15 3 -29
-2 -33 -5 -3 -5 -12 1 -23 5 -10 7 -21 4 -24 -8 -8 -7 -243 1 -256 3 -6 2 -11
-4 -11 -6 0 -6 -11 -1 -30 11 -37 10 -40 -1 -62 -6 -10 -5 -19 1 -23 5 -3 7
-12 4 -19 -8 -21 -10 -146 -2 -146 4 0 3 -13 -2 -30 -5 -16 -5 -30 -2 -30 9 0
7 -64 -2 -79 -4 -5 -2 -12 4 -16 6 -4 7 -12 1 -24 -5 -9 -6 -23 -2 -29 4 -7 5
-32 1 -55 -3 -24 -3 -55 1 -70 4 -15 3 -29 -2 -33 -5 -3 -5 -12 1 -23 5 -10 7
-21 4 -24 -8 -8 -7 -243 1 -256 3 -6 2 -11 -4 -11 -6 0 -6 -11 -1 -30 11 -37
10 -40 -1 -62 -6 -10 -5 -19 1 -23 5 -3 7 -12 4 -19 -8 -21 -10 -146 -2 -146
4 0 3 -13 -2 -30 -5 -16 -5 -30 -2 -30 9 0 7 -64 -2 -79 -4 -5 -2 -12 4 -16 6
-4 7 -12 1 -24 -5 -9 -6 -23 -2 -29 4 -7 5 -32 1 -55 -3 -24 -3 -55 1 -70 4
-15 3 -29 -2 -33 -5 -3 -5 -12 1 -23 5 -10 7 -21 4 -24 -8 -8 -7 -243 1 -256
3 -6 2 -11 -4 -11 -6 0 -6 -11 -1 -30 11 -37 10 -40 -1 -62 -6 -10 -5 -19 1
-23 5 -3 7 -12 4 -19 -8 -21 -10 -146 -2 -146 4 0 3 -13 -2 -30 -5 -16 -5 -30
-2 -30 9 0 7 -64 -2 -79 -4 -5 -2 -12 4 -16 6 -4 7 -12 1 -24 -5 -9 -6 -22 -3
-28 9 -14 7 -77 -2 -92 -4 -5 -2 -12 3 -15 5 -4 6 -19 2 -34 -4 -15 -5 -37 -3
-49 l3 -23 4001 0 c2201 0 3998 3 3995 6 -3 4 -2 15 3 25 7 11 7 20 0 24 -5 3
-7 12 -4 19 8 21 10 146 2 146 -4 0 -3 14 2 30 5 17 5 30 2 30 -9 0 -7 64 2
79 4 5 2 12 -4 16 -6 4 -7 12 -1 24 5 9 6 23 2 29 -4 7 -5 32 -1 55 3 24 3 55
-1 70 -4 15 -3 29 2 33 5 3 5 12 -1 23 -5 10 -7 21 -4 24 8 8 7 243 -1 256 -3
6 -2 11 4 11 6 0 6 11 1 30 -11 37 -10 40 1 62 6 10 5 19 -1 23 -6 4 -8 11 -4
16 3 6 6 46 6 89 0 43 -3 83 -6 89 -4 5 -2 12 4 16 7 4 7 12 0 24 -5 10 -7 21
-4 24 8 8 7 243 -1 256 -3 6 -2 11 4 11 8 0 0 53 -10 63 -1 1 3 12 9 24 8 14
9 24 2 28 -6 4 -8 11 -4 16 8 13 8 165 0 178 -4 5 -2 12 4 16 7 4 7 12 0 24
-5 10 -7 21 -4 24 8 8 7 243 -1 256 -3 6 -2 11 4 11 8 0 0 53 -10 63 -1 1 3
12 9 24 8 14 9 24 2 28 -6 4 -8 11 -4 16 8 13 8 165 0 178 -4 5 -2 12 4 16 7
4 7 12 0 24 -5 10 -7 21 -4 24 8 8 7 243 -1 256 -3 6 -2 11 4 11 8 0 0 53 -10
63 -1 1 3 12 9 24 8 13 8 24 2 28 -5 3 -7 12 -4 19 8 21 10 146 2 146 -4 0 -3
14 2 30 5 17 5 30 2 30 -9 0 -7 64 2 79 4 5 2 12 -4 16 -6 4 -7 12 -1 24 5 9
6 23 2 29 -4 7 -5 32 -1 55 3 24 3 55 -1 70 -4 15 -3 29 2 33 5 3 5 12 -1 23
-5 10 -7 21 -4 24 8 8 7 243 -1 256 -3 6 -2 11 4 11 8 0 0 53 -10 63 -1 1 3
12 9 24 8 13 8 24 2 28 -5 3 -7 12 -4 19 8 21 10 146 2 146 -4 0 -3 14 2 30 5
17 5 30 2 30 -9 0 -7 64 2 79 4 5 2 12 -4 16 -6 4 -7 12 -1 24 5 9 6 23 2 30
-5 7 -5 30 -1 51 4 22 5 42 2 45 -7 7 -7 74 0 81 4 3 2 19 -2 35 -5 17 -5 29
0 29 6 0 6 10 0 25 -6 15 -6 26 1 30 5 4 6 13 1 22 -5 8 -6 32 -2 54 4 21 5
41 2 44 -5 4 -6 71 -2 78 4 6 4 77 0 77 -7 0 -5 54 2 66 3 5 2 18 -2 29 -4 11
-4 34 1 52 4 18 3 33 -1 33 -5 0 -5 14 0 30 5 17 5 30 2 30 -9 0 -7 64 2 79 4
5 2 12 -4 16 -6 4 -7 12 -1 24 5 9 6 23 2 29 -4 7 -5 32 -1 55 3 24 3 55 -1
70 -4 15 -3 29 2 33 5 3 5 12 -1 23 -5 10 -7 21 -4 24 8 8 7 243 -1 256 -3 6
-2 11 4 11 8 0 0 53 -10 63 -1 1 3 12 9 24 8 13 8 24 2 28 -5 3 -7 12 -4 19 8
21 10 146 2 146 -4 0 -3 14 2 30 5 17 5 30 2 30 -9 0 -7 64 2 79 4 5 2 12 -4
16 -6 4 -7 12 -1 24 5 9 6 23 2 30 -5 7 -5 30 -1 51 4 22 5 42 2 45 -7 7 -7
74 0 81 4 3 2 19 -2 35 -5 17 -5 29 0 29 6 0 6 10 0 25 -6 15 -6 26 1 30 5 4
6 13 1 22 -5 8 -6 32 -2 54 4 21 5 41 2 44 -5 4 -6 71 -2 78 4 6 4 77 0 77 -7
0 -5 54 2 66 3 5 2 18 -2 29 -4 11 -4 34 1 52 4 18 3 33 -1 33 -5 0 -5 14 0
30 5 17 5 30 2 30 -9 0 -7 64 2 79 4 5 2 12 -4 16 -6 4 -7 12 -1 24 5 9 6 23
2 29 -4 7 -5 32 -1 55 3 24 3 55 -1 70 -4 15 -3 29 2 33 5 3 5 12 -1 23 -5 10
-7 21 -4 24 8 8 7 243 -1 256 -3 6 -2 11 4 11 6 0 6 11 1 30 -11 37 -10 40 1
62 6 10 5 19 -1 23 -5 3 -7 12 -4 19 8 21 10 146 2 146 -4 0 -3 14 2 30 5 17
5 30 0 30 -4 0 -6 9 -3 20 5 20 0 20 -3994 20 -2200 0 -4003 -3 -4006 -6z
m4005 -3996 c2158 -2158 2390 -2393 2368 -2399 -14 -3 -35 -2 -46 2 -12 4 -24
5 -28 2 -3 -3 -30 -5 -61 -4 -30 1 -62 1 -70 1 -26 0 -45 0 -57 1 -7 0 -22 0
-33 -1 -11 0 -27 0 -35 0 -8 1 -24 1 -35 0 -26 -1 -116 -2 -132 -1 -7 1 -20 1
-28 1 -8 0 -22 0 -30 0 -8 0 -21 0 -27 1 -7 0 -22 0 -33 -1 -11 0 -27 0 -35 0
-8 1 -24 1 -35 0 -26 -1 -116 -2 -132 -1 -7 1 -20 1 -28 1 -8 0 -22 0 -30 0
-8 0 -21 0 -27 1 -7 0 -22 0 -33 -1 -11 0 -27 0 -35 0 -8 1 -24 1 -35 0 -26
-1 -116 -2 -132 -1 -7 1 -20 1 -28 1 -8 0 -22 0 -30 0 -8 0 -21 0 -27 1 -7 0
-22 0 -33 -1 -11 0 -27 0 -35 0 -8 1 -24 1 -35 0 -26 -1 -116 -2 -132 -1 -7 1
-20 1 -28 1 -8 0 -22 0 -30 0 -8 0 -21 0 -27 1 -7 0 -22 0 -33 -1 -11 0 -27 0
-35 0 -8 1 -24 1 -35 0 -26 -1 -116 -2 -132 -1 -7 1 -20 1 -28 1 -8 0 -22 0
-30 0 -8 0 -21 0 -27 1 -7 0 -22 0 -33 -1 -11 0 -27 0 -35 0 -8 1 -24 1 -35 0
-26 -1 -116 -2 -132 -1 -7 1 -20 1 -28 1 -8 0 -22 0 -30 0 -8 0 -21 0 -27 1
-7 0 -22 0 -33 -1 -11 0 -27 0 -35 0 -8 1 -24 1 -35 0 -26 -1 -116 -2 -132 -1
-7 1 -20 1 -28 1 -8 0 -22 0 -30 0 -8 0 -21 0 -27 1 -7 0 -22 0 -33 -1 -20 0
-29 0 -90 1 -16 0 -45 0 -62 0 -18 0 -44 -1 -58 -1 -50 0 -61 0 -117 -1 -31 0
-61 2 -67 5 -5 4 -12 2 -15 -3 -4 -6 -18 -6 -36 -1 -17 5 -32 5 -35 0 -3 -5
-15 -6 -29 0 -12 4 -29 4 -36 0 -8 -5 -18 -6 -24 -3 -5 3 -32 5 -60 4 -71 -2
-69 -2 -91 -1 -11 0 -49 0 -85 1 -36 0 -69 0 -75 0 -5 0 -19 0 -30 -1 -11 0
-28 0 -37 0 -10 0 -25 0 -33 0 -8 0 -22 0 -30 0 -49 0 -149 -1 -160 -1 -5 0
-19 0 -30 1 -11 0 -48 0 -82 -1 -34 0 -66 2 -72 5 -5 4 -12 2 -15 -3 -4 -6
-18 -6 -36 -1 -17 5 -32 5 -35 0 -3 -5 -15 -6 -29 0 -12 4 -29 4 -36 0 -8 -5
-18 -6 -24 -3 -5 3 -32 5 -60 4 -71 -2 -69 -2 -91 -1 -11 0 -49 0 -85 1 -36 0
-69 0 -75 0 -5 0 -19 0 -30 -1 -11 0 -28 0 -37 0 -10 0 -25 0 -33 0 -8 0 -22
0 -30 0 -8 0 -22 0 -30 0 -8 0 -38 0 -65 1 -28 1 -53 -1 -56 -4 -3 -3 -19 -1
-35 3 -16 5 -31 5 -34 0 -3 -4 -14 -6 -25 -3 -11 3 -18 8 -16 12 3 4 1 13 -4
21 -4 7 -5 23 0 35 5 12 5 27 1 33 -4 7 -4 35 -1 63 4 27 3 52 -1 55 -5 3 -4
16 1 29 5 14 5 27 0 30 -5 3 -5 18 0 35 5 17 5 30 0 30 -4 0 -4 16 0 34 4 19
5 38 2 41 -8 7 -5 102 3 115 3 6 3 10 -2 10 -8 0 -7 114 2 137 2 7 0 15 -5 18
-6 3 -6 15 0 29 5 13 6 27 3 30 -8 8 -9 256 -2 256 4 0 3 16 -1 35 -4 19 -5
35 -1 35 7 0 6 88 -2 96 -3 4 -2 17 3 30 5 13 6 26 0 29 -5 3 -5 18 0 35 5 17
5 30 0 30 -4 0 -4 16 0 34 4 19 5 38 2 41 -8 7 -5 102 3 115 3 6 3 10 -2 10
-8 0 -7 114 2 137 2 7 0 15 -5 18 -6 3 -6 15 0 29 5 13 6 27 3 30 -8 8 -9 256
-2 256 4 0 3 16 -1 35 -4 19 -4 35 1 35 4 0 5 10 0 22 -4 13 -5 35 0 50 4 16
5 28 1 28 -7 0 -5 116 3 137 2 7 0 15 -5 18 -6 3 -6 15 0 29 5 13 6 27 3 30
-8 8 -9 256 -2 256 4 0 3 16 -1 35 -4 19 -5 35 -1 35 3 0 5 19 3 42 -5 79 -4
167 3 178 3 5 2 10 -4 10 -6 0 -6 11 -1 30 5 18 5 32 -1 36 -5 3 -7 9 -4 14 5
7 5 26 4 158 0 34 3 66 6 71 3 5 1 12 -4 16 -7 3 -7 15 -1 30 5 13 6 26 2 29
-5 3 -5 30 -2 61 3 31 3 58 -2 61 -4 3 -3 16 2 29 5 14 5 27 0 30 -5 3 -5 18
0 35 5 17 5 30 0 30 -4 0 -4 16 0 34 4 19 5 38 2 41 -8 7 -5 102 3 115 3 6 3
10 -2 10 -8 0 -7 114 2 137 2 7 0 15 -5 18 -6 3 -6 15 0 29 5 13 6 27 3 30 -8
8 -9 256 -2 256 4 0 3 16 -1 35 -4 19 -5 35 -1 35 7 0 6 88 -2 96 -3 4 -2 17
3 30 5 13 6 26 0 29 -5 3 -5 18 0 35 5 17 5 30 0 30 -4 0 -4 16 0 35 4 19 5
37 0 40 -4 2 -4 24 0 48 3 25 3 54 -1 65 -5 12 -4 24 1 27 5 3 6 15 1 28 -8
20 -5 47 5 47 2 0 1081 -1076 2396 -2392z"/>
</g>
</svg>
